<svg xmlns="http://www.w3.org/2000/svg"  viewBox="0 0 50 50" width="46px" height="46px"><path d="M 7 2 L 7 48 L 8 48 L 43 48 L 43 2 L 7 2 z M 9 4 L 41 4 L 41 46 L 9 46 L 9 4 z M 24 9 L 24 13.269531 L 20.304688 11.134766 L 19.304688 12.865234 L 23.001953 15 L 19.304688 17.134766 L 20.304688 18.865234 L 24 16.730469 L 24 21 L 26 21 L 26 16.730469 L 29.695312 18.865234 L 30.695312 17.134766 L 26.998047 15 L 30.695312 12.865234 L 29.695312 11.134766 L 26 13.269531 L 26 9 L 24 9 z M 14 26 L 14 28 L 36 28 L 36 26 L 14 26 z M 14 32 L 14 34 L 36 34 L 36 32 L 14 32 z M 14 38 L 14 40 L 18 40 L 21 40 L 26 40 L 26 38 L 21 38 L 18 38 L 14 38 z"/></svg>