<svg xmlns="http://www.w3.org/2000/svg"  viewBox="0 0 50 50" width="46px" height="46px"><path d="M 25 1 C 16.175781 1 9 8.175781 9 17 C 9 19.371094 10.007813 22.339844 11.4375 25.59375 C 12.867188 28.847656 14.738281 32.339844 16.625 35.59375 C 20.398438 42.097656 24.1875 47.5625 24.1875 47.5625 C 24.375 47.824219 24.679688 47.980469 25 47.980469 C 25.320313 47.980469 25.625 47.824219 25.8125 47.5625 C 25.8125 47.5625 29.601563 42.097656 33.375 35.59375 C 35.261719 32.339844 37.132813 28.847656 38.5625 25.59375 C 39.992188 22.339844 41 19.371094 41 17 C 41 8.175781 33.824219 1 25 1 Z M 25 3 C 32.742188 3 39 9.257813 39 17 C 39 18.769531 38.132813 21.636719 36.75 24.78125 C 35.367188 27.925781 33.488281 31.382813 31.625 34.59375 C 28.300781 40.320313 25.683594 44.15625 25 45.15625 C 24.316406 44.15625 21.699219 40.320313 18.375 34.59375 C 16.511719 31.382813 14.632813 27.925781 13.25 24.78125 C 11.867188 21.636719 11 18.769531 11 17 C 11 9.257813 17.257813 3 25 3 Z M 25 8 C 20.042969 8 16 12.042969 16 17 C 16 21.957031 20.042969 26 25 26 C 29.957031 26 34 21.957031 34 17 C 34 12.042969 29.957031 8 25 8 Z M 25 10 C 28.878906 10 32 13.121094 32 17 C 32 20.878906 28.878906 24 25 24 C 21.121094 24 18 20.878906 18 17 C 18 13.121094 21.121094 10 25 10 Z M 25 13 C 22.789063 13 21 14.789063 21 17 C 21 19.210938 22.789063 21 25 21 C 27.210938 21 29 19.210938 29 17 C 29 16.4375 28.894531 15.921875 28.6875 15.4375 C 28.414063 15.785156 27.980469 16 27.5 16 C 26.671875 16 26 15.328125 26 14.5 C 26 14.019531 26.214844 13.585938 26.5625 13.3125 C 26.078125 13.105469 25.5625 13 25 13 Z"/></svg>